<?xml version="1.0" standalone="no"?>
<!DOCTYPE svg PUBLIC "-//W3C//DTD SVG 20010904//EN"
 "http://www.w3.org/TR/2001/REC-SVG-20010904/DTD/svg10.dtd">
<svg version="1.0" xmlns="http://www.w3.org/2000/svg"
 width="400.000000pt" height="400.000000pt" viewBox="0 0 400.000000 400.000000"
 preserveAspectRatio="xMidYMid meet">
<metadata>
Created by potrace 1.14, written by Peter Selinger 2001-2017
</metadata>
<g transform="translate(0.000000,400.000000) scale(0.100000,-0.100000)"
fill="#000000" stroke="none">
<path d="M1815 3770 c-27 -4 -72 -10 -99 -14 -27 -4 -77 -14 -110 -22 -34 -8
-71 -17 -83 -20 -12 -2 -62 -18 -110 -35 -178 -62 -383 -176 -528 -294 -357
-291 -596 -717 -652 -1165 -10 -81 -10 -354 -1 -435 54 -452 294 -891 637
-1167 219 -176 450 -292 711 -357 47 -11 103 -23 125 -26 22 -3 63 -8 90 -12
107 -15 410 -8 505 12 14 3 48 9 75 15 87 16 92 18 202 55 268 92 488 229 689
429 278 279 443 609 509 1021 11 65 14 375 5 435 -5 30 -11 73 -14 95 -17 128
-75 313 -145 468 -136 302 -411 604 -709 780 -155 92 -404 188 -549 212 -18 3
-48 8 -65 11 -18 3 -46 8 -63 11 -50 8 -367 11 -420 3z m1036 -930 c14 -16 15
-28 7 -67 -5 -26 -11 -59 -14 -73 -3 -14 -27 -135 -54 -270 -27 -135 -51 -258
-54 -275 -9 -45 -15 -78 -20 -100 -2 -11 -25 -126 -51 -255 -51 -258 -52 -264
-60 -300 -3 -14 -7 -36 -10 -50 -51 -275 -56 -289 -114 -313 -68 -28 -60 -33
-525 336 -179 142 -172 137 -241 191 -72 57 -71 56 -58 64 9 6 146 127 193
172 9 8 56 51 106 95 49 44 91 82 94 85 3 3 46 41 95 85 50 44 110 98 135 121
25 23 57 53 72 66 137 123 168 154 168 164 0 25 -29 21 -82 -10 -48 -29 -587
-371 -932 -592 l-129 -82 -236 79 c-195 66 -241 84 -263 109 -16 17 -28 38
-28 48 0 45 32 59 725 329 94 36 174 70 180 75 5 4 18 8 30 8 12 0 25 4 30 8
6 5 66 30 135 57 69 26 139 53 155 60 17 7 59 25 95 38 36 14 130 51 210 82
380 150 406 157 441 115z m-1127 -1197 c40 -32 88 -69 106 -83 19 -14 47 -36
63 -50 l29 -26 -93 -84 c-50 -47 -97 -89 -104 -95 -6 -5 -29 -26 -51 -46 -21
-20 -50 -40 -63 -44 -23 -7 -23 -6 -17 52 4 32 8 76 10 98 7 70 17 158 26 224
5 35 9 67 8 70 -2 17 3 41 7 41 3 0 38 -26 79 -57z"/>
</g>
</svg>
